<svg width="20" height="19" viewBox="0 0 20 19" fill="none" xmlns="http://www.w3.org/2000/svg">
<g id="Search" clip-path="url(#clip0_23_41)">
<path id="Vector" d="M14.6787 12.2829C15.8891 10.7138 16.4312 8.76847 16.1966 6.836C15.962 4.90353 14.968 3.12648 13.4134 1.86035C11.8589 0.594231 9.85843 -0.0675839 7.81229 0.00731551C5.76615 0.0822149 3.82522 0.888304 2.37783 2.26431C0.930434 3.64032 0.0833075 5.48478 0.00593024 7.42866C-0.071447 9.37255 0.626631 11.2725 1.9605 12.7484C3.29438 14.2244 5.16567 15.1674 7.20002 15.3889C9.23436 15.6104 11.2817 15.094 12.9325 13.943H12.9312C12.9687 13.9905 13.0087 14.0356 13.0537 14.0796L17.8662 18.6514C18.1006 18.8743 18.4186 18.9995 18.7502 18.9996C19.0818 18.9997 19.3998 18.8747 19.6344 18.652C19.8689 18.4294 20.0008 18.1273 20.0009 17.8123C20.001 17.4973 19.8694 17.1951 19.635 16.9723L14.8225 12.4004C14.7778 12.3575 14.7297 12.319 14.6787 12.2829ZM15.0012 7.71814C15.0012 8.57583 14.8234 9.42513 14.4779 10.2175C14.1324 11.0099 13.626 11.7299 12.9876 12.3364C12.3492 12.9429 11.5913 13.424 10.7572 13.7522C9.92308 14.0805 9.02908 14.2494 8.12624 14.2494C7.22341 14.2494 6.32941 14.0805 5.4953 13.7522C4.66118 13.424 3.90329 12.9429 3.26488 12.3364C2.62648 11.7299 2.12007 11.0099 1.77457 10.2175C1.42907 9.42513 1.25124 8.57583 1.25124 7.71814C1.25124 5.98594 1.97557 4.32469 3.26489 3.09985C4.5542 1.875 6.30288 1.18689 8.12624 1.18689C9.94961 1.18689 11.6983 1.875 12.9876 3.09985C14.2769 4.32469 15.0012 5.98594 15.0012 7.71814Z" fill="#1E1E1E"/>
</g>
<defs>
<clipPath id="clip0_23_41">
<rect width="20" height="19" fill="white"/>
</clipPath>
</defs>
</svg>
