<svg width="29" height="10" viewBox="0 0 29 10" fill="none" xmlns="http://www.w3.org/2000/svg">
<g id="100+">
<path d="M0.961182 1.71448V0.419557H3.55103V9.49649H2.11914V1.71448H0.961182Z" fill="#1E1E1E"/>
<path d="M5.50101 4.83974C5.50101 3.4037 5.74174 2.28309 6.22318 1.47791C6.71293 0.66443 7.55131 0.25769 8.73833 0.25769C9.92534 0.25769 10.7596 0.66443 11.241 1.47791C11.7308 2.28309 11.9756 3.4037 11.9756 4.83974C11.9756 6.29238 11.7308 7.42959 11.241 8.25137C10.7596 9.06485 9.92534 9.47159 8.73833 9.47159C7.55131 9.47159 6.71293 9.06485 6.22318 8.25137C5.74174 7.42959 5.50101 6.29238 5.50101 4.83974ZM10.5811 4.83974C10.5811 4.16737 10.5355 3.59877 10.4441 3.13392C10.3611 2.66908 10.1868 2.29139 9.92119 2.00086C9.65557 1.70203 9.26128 1.55262 8.73833 1.55262C8.21538 1.55262 7.82109 1.70203 7.55546 2.00086C7.28984 2.29139 7.11137 2.66908 7.02006 3.13392C6.93705 3.59877 6.89555 4.16737 6.89555 4.83974C6.89555 5.53701 6.93705 6.12221 7.02006 6.59536C7.10307 7.06851 7.27739 7.45034 7.54301 7.74087C7.81694 8.0314 8.21538 8.17666 8.73833 8.17666C9.26128 8.17666 9.65557 8.0314 9.92119 7.74087C10.1951 7.45034 10.3736 7.06851 10.4566 6.59536C10.5396 6.12221 10.5811 5.53701 10.5811 4.83974Z" fill="#1E1E1E"/>
<path d="M13.4776 4.83974C13.4776 3.4037 13.7183 2.28309 14.1997 1.47791C14.6895 0.66443 15.5279 0.25769 16.7149 0.25769C17.9019 0.25769 18.7361 0.66443 19.2176 1.47791C19.7073 2.28309 19.9522 3.4037 19.9522 4.83974C19.9522 6.29238 19.7073 7.42959 19.2176 8.25137C18.7361 9.06485 17.9019 9.47159 16.7149 9.47159C15.5279 9.47159 14.6895 9.06485 14.1997 8.25137C13.7183 7.42959 13.4776 6.29238 13.4776 4.83974ZM18.5577 4.83974C18.5577 4.16737 18.512 3.59877 18.4207 3.13392C18.3377 2.66908 18.1634 2.29139 17.8978 2.00086C17.6321 1.70203 17.2378 1.55262 16.7149 1.55262C16.1919 1.55262 15.7976 1.70203 15.532 2.00086C15.2664 2.29139 15.0879 2.66908 14.9966 3.13392C14.9136 3.59877 14.8721 4.16737 14.8721 4.83974C14.8721 5.53701 14.9136 6.12221 14.9966 6.59536C15.0796 7.06851 15.2539 7.45034 15.5196 7.74087C15.7935 8.0314 16.1919 8.17666 16.7149 8.17666C17.2378 8.17666 17.6321 8.0314 17.8978 7.74087C18.1717 7.45034 18.3501 7.06851 18.4332 6.59536C18.5162 6.12221 18.5577 5.53701 18.5577 4.83974Z" fill="#1E1E1E"/>
<path d="M28.3272 5.59926H25.8121V8.17666H24.4922V5.59926H21.9771V4.40395H24.4922V1.82654H25.8121V4.40395H28.3272V5.59926Z" fill="#1E1E1E"/>
</g>
</svg>
