<svg width="24" height="10" viewBox="0 0 24 10" fill="none" xmlns="http://www.w3.org/2000/svg">
<g id="50+">
<path d="M6.35061 1.64869H2.17945V4.12648C2.35377 3.89406 2.61109 3.69899 2.95142 3.54127C3.30006 3.38356 3.66944 3.3047 4.05958 3.3047C4.75685 3.3047 5.32131 3.45411 5.75295 3.75294C6.19289 4.05177 6.50417 4.42946 6.68679 4.886C6.87771 5.34255 6.97317 5.824 6.97317 6.33034C6.97317 6.9446 6.85281 7.49246 6.61208 7.97391C6.37966 8.44705 6.02687 8.82059 5.55373 9.09451C5.08888 9.36844 4.51613 9.50541 3.83546 9.50541C2.93067 9.50541 2.20435 9.28128 1.6565 8.83304C1.10864 8.38479 0.780762 7.79129 0.672852 7.05252H2.05494C2.14625 7.44265 2.34962 7.75393 2.66505 7.98636C2.98048 8.21048 3.37477 8.32254 3.84791 8.32254C4.43727 8.32254 4.87721 8.14407 5.16774 7.78714C5.46657 7.4302 5.61598 6.95706 5.61598 6.3677C5.61598 5.77004 5.46657 5.3135 5.16774 4.99806C4.86891 4.67433 4.42897 4.51247 3.84791 4.51247C3.44117 4.51247 3.09669 4.61623 2.81446 4.82375C2.54053 5.02297 2.34131 5.29689 2.2168 5.64553H0.872071V0.403565H6.35061V1.64869Z" fill="#1E1E1E"/>
<path d="M8.45078 4.84865C8.45078 3.41261 8.6915 2.292 9.17295 1.48682C9.66269 0.673341 10.5011 0.266602 11.6881 0.266602C12.8751 0.266602 13.7093 0.673341 14.1908 1.48682C14.6805 2.292 14.9254 3.41261 14.9254 4.84865C14.9254 6.30129 14.6805 7.4385 14.1908 8.26028C13.7093 9.07376 12.8751 9.4805 11.6881 9.4805C10.5011 9.4805 9.66269 9.07376 9.17295 8.26028C8.6915 7.4385 8.45078 6.30129 8.45078 4.84865ZM13.5309 4.84865C13.5309 4.17628 13.4852 3.60768 13.3939 3.14283C13.3109 2.67799 13.1366 2.3003 12.871 2.00977C12.6053 1.71094 12.211 1.56153 11.6881 1.56153C11.1651 1.56153 10.7709 1.71094 10.5052 2.00977C10.2396 2.3003 10.0611 2.67799 9.96983 3.14283C9.88682 3.60768 9.84531 4.17628 9.84531 4.84865C9.84531 5.54592 9.88682 6.13112 9.96983 6.60427C10.0528 7.07742 10.2272 7.45925 10.4928 7.74978C10.7667 8.04031 11.1651 8.18558 11.6881 8.18558C12.211 8.18558 12.6053 8.04031 12.871 7.74978C13.1449 7.45925 13.3234 7.07742 13.4064 6.60427C13.4894 6.13112 13.5309 5.54592 13.5309 4.84865Z" fill="#1E1E1E"/>
<path d="M23.3004 5.60817H20.7853V8.18558H19.4654V5.60817H16.9503V4.41286H19.4654V1.83545H20.7853V4.41286H23.3004V5.60817Z" fill="#1E1E1E"/>
</g>
</svg>
