<svg width="56" height="56" viewBox="0 0 56 56" fill="none" xmlns="http://www.w3.org/2000/svg">
<g id="rebranded-icon-story-2-5611a1d6fccb1e6b28adac130948d9701358f94fe7eb31daa224493bbd875c36.svg" clip-path="url(#clip0_118_14676)">
<path id="Vector" d="M44.3333 0H11.6667C5.22334 0 0 5.22334 0 11.6667V44.3333C0 50.7767 5.22334 56 11.6667 56H44.3333C50.7767 56 56 50.7767 56 44.3333V11.6667C56 5.22334 50.7767 0 44.3333 0Z" fill="#10B0B0" fill-opacity="0.141176"/>
<g id="video player">
<g id="Group" filter="url(#filter0_f_118_14676)">
<path id="Vector_2" d="M40.2378 17.6847H31.8244C30.8508 17.6847 30.0615 18.7077 30.0615 19.9696V36.0332C30.0615 37.2952 30.8508 38.3182 31.8244 38.3182H40.2378C41.2114 38.3182 42.0006 37.2952 42.0006 36.0332V19.9696C42.0006 18.7077 41.2114 17.6847 40.2378 17.6847Z" fill="url(#paint0_linear_118_14676)"/>
<path id="Vector_3" d="M24.1763 17.6846H15.7628C14.7892 17.6846 14 18.7076 14 19.9695V36.0331C14 37.295 14.7892 38.318 15.7628 38.318H24.1763C25.1498 38.318 25.9391 37.295 25.9391 36.0331V19.9695C25.9391 18.7076 25.1498 17.6846 24.1763 17.6846Z" fill="url(#paint1_linear_118_14676)"/>
</g>
<g id="Group 4">
<g id="Group_2">
<path id="Vector_4" d="M40.2378 17.6847H31.8244C30.8508 17.6847 30.0615 18.7077 30.0615 19.9696V36.0332C30.0615 37.2952 30.8508 38.3182 31.8244 38.3182H40.2378C41.2114 38.3182 42.0006 37.2952 42.0006 36.0332V19.9696C42.0006 18.7077 41.2114 17.6847 40.2378 17.6847Z" fill="url(#paint2_linear_118_14676)"/>
<path id="Vector_5" d="M24.1763 17.6846H15.7628C14.7892 17.6846 14 18.7076 14 19.9695V36.0331C14 37.295 14.7892 38.318 15.7628 38.318H24.1763C25.1498 38.318 25.9391 37.295 25.9391 36.0331V19.9695C25.9391 18.7076 25.1498 17.6846 24.1763 17.6846Z" fill="url(#paint3_linear_118_14676)"/>
</g>
<g id="Vector_6" filter="url(#filter1_b_118_14676)">
<path d="M34.4099 14H21.7326C20.759 14 19.9697 15.023 19.9697 16.2849V39.7151C19.9697 40.977 20.759 42 21.7326 42H34.4099C35.3835 42 36.1728 40.977 36.1728 39.7151V16.2849C36.1728 15.023 35.3835 14 34.4099 14Z" fill="url(#paint4_linear_118_14676)"/>
<path d="M21.7326 14.25H34.4099C35.189 14.25 35.9228 15.0969 35.9228 16.2849V39.7151C35.9228 40.9031 35.189 41.75 34.4099 41.75H21.7326C20.9535 41.75 20.2197 40.9031 20.2197 39.7151V16.2849C20.2197 15.0969 20.9535 14.25 21.7326 14.25Z" stroke="url(#paint5_linear_118_14676)" stroke-width="0.5"/>
</g>
</g>
</g>
</g>
<defs>
<filter id="filter0_f_118_14676" x="-29" y="-25.3154" width="114" height="106.634" filterUnits="userSpaceOnUse" color-interpolation-filters="sRGB">
<feFlood flood-opacity="0" result="BackgroundImageFix"/>
<feBlend mode="normal" in="SourceGraphic" in2="BackgroundImageFix" result="shape"/>
<feGaussianBlur stdDeviation="21.5" result="effect1_foregroundBlur_118_14676"/>
</filter>
<filter id="filter1_b_118_14676" x="1.96973" y="-4" width="52.2031" height="64" filterUnits="userSpaceOnUse" color-interpolation-filters="sRGB">
<feFlood flood-opacity="0" result="BackgroundImageFix"/>
<feGaussianBlur in="BackgroundImageFix" stdDeviation="9"/>
<feComposite in2="SourceAlpha" operator="in" result="effect1_backgroundBlur_118_14676"/>
<feBlend mode="normal" in="SourceGraphic" in2="effect1_backgroundBlur_118_14676" result="shape"/>
</filter>
<linearGradient id="paint0_linear_118_14676" x1="16.2649" y1="43.0236" x2="46.7488" y2="29.2333" gradientUnits="userSpaceOnUse">
<stop stop-color="#7C00FF"/>
<stop offset="0.52" stop-color="#FF6700"/>
<stop offset="1" stop-color="#FFD400"/>
</linearGradient>
<linearGradient id="paint1_linear_118_14676" x1="12.1562" y1="33.9401" x2="42.639" y2="20.1476" gradientUnits="userSpaceOnUse">
<stop stop-color="#7C00FF"/>
<stop offset="0.52" stop-color="#FF6700"/>
<stop offset="1" stop-color="#FFD400"/>
</linearGradient>
<linearGradient id="paint2_linear_118_14676" x1="16.2649" y1="43.0236" x2="46.7488" y2="29.2333" gradientUnits="userSpaceOnUse">
<stop stop-color="#7C00FF"/>
<stop offset="0.52" stop-color="#FF6700"/>
<stop offset="1" stop-color="#FFD400"/>
</linearGradient>
<linearGradient id="paint3_linear_118_14676" x1="12.1562" y1="33.9401" x2="42.639" y2="20.1476" gradientUnits="userSpaceOnUse">
<stop stop-color="#7C00FF"/>
<stop offset="0.52" stop-color="#FF6700"/>
<stop offset="1" stop-color="#FFD400"/>
</linearGradient>
<linearGradient id="paint4_linear_118_14676" x1="20.8845" y1="40.4192" x2="42.42" y2="27.9571" gradientUnits="userSpaceOnUse">
<stop stop-color="white" stop-opacity="0.2"/>
<stop offset="1" stop-color="white" stop-opacity="0.49"/>
</linearGradient>
<linearGradient id="paint5_linear_118_14676" x1="21.1135" y1="16.2021" x2="42.1055" y2="29.1908" gradientUnits="userSpaceOnUse">
<stop stop-color="white"/>
<stop offset="1" stop-color="white" stop-opacity="0"/>
</linearGradient>
<clipPath id="clip0_118_14676">
<rect width="56" height="56" fill="white"/>
</clipPath>
</defs>
</svg>
