<svg width="56" height="56" viewBox="0 0 56 56" fill="none" xmlns="http://www.w3.org/2000/svg">
<g id="rebranded-icon-story-1-f7be38c51a389f415e9c0ae94294a80d10a744c3006a2e3a5978c11f8fc8d5d5.svg" clip-path="url(#clip0_118_14665)">
<path id="Vector" d="M44.3333 0H11.6667C5.22334 0 0 5.22334 0 11.6667V44.3333C0 50.7767 5.22334 56 11.6667 56H44.3333C50.7767 56 56 50.7767 56 44.3333V11.6667C56 5.22334 50.7767 0 44.3333 0Z" fill="#10B0B0" fill-opacity="0.141176"/>
<path id="Vector_2" d="M40.1104 35.0354C41.4083 32.8479 42.1813 30.3104 42.1813 27.5833C42.1813 19.5333 35.6479 13 27.5979 13C19.5479 13 13 19.5187 13 27.5833C13 35.6479 19.5333 42.1667 27.5833 42.1667C30.3104 42.1667 32.8479 41.4083 35.0354 40.0958L39.5125 41.2917C40.5917 41.5833 41.5833 40.5917 41.2917 39.5125L40.0958 35.0354H40.1104ZM34.7146 34.5542C34.4812 34.7875 34.1896 34.8896 33.8833 34.8896C33.5771 34.8896 33.2854 34.7729 33.0521 34.5542L32.0312 33.5333C30.7771 34.4667 29.2458 35.05 27.5833 35.05C23.4708 35.05 20.1167 31.6958 20.1167 27.5833C20.1167 23.4708 23.4708 20.1167 27.5833 20.1167C31.6958 20.1167 35.05 23.4708 35.05 27.5833C35.05 29.1875 34.5396 30.6604 33.6792 31.8708L34.7146 32.9062C35.1667 33.3583 35.1667 34.1021 34.7146 34.5542Z" fill="#10B0B0"/>
<path id="Vector_3" d="M29.5042 29.3438C29.9562 28.8917 30.7 28.8917 31.1521 29.3438L32.5375 30.7292C32.9896 29.9708 33.2667 29.0813 33.2667 28.1333C33.2667 25.3042 30.9625 23 28.1333 23C25.3042 23 23 25.3042 23 28.1333C23 30.9625 25.3042 33.2667 28.1333 33.2667C29.1687 33.2667 30.1167 32.9604 30.9333 32.4354L29.5042 31.0063C29.0521 30.5542 29.0521 29.8104 29.5042 29.3583V29.3438Z" fill="#10B0B0"/>
</g>
<defs>
<clipPath id="clip0_118_14665">
<rect width="56" height="56" fill="white"/>
</clipPath>
</defs>
</svg>
