<svg width="46" height="8" viewBox="0 0 46 8" fill="none" xmlns="http://www.w3.org/2000/svg">
<g id="Rare Species">
<path d="M3.20123 5.8983L2.08062 3.95124H1.47129V5.8983H0.672852V1.03066H2.35377C2.7273 1.03066 3.04247 1.09603 3.29928 1.22676C3.56076 1.3575 3.75453 1.5326 3.8806 1.75205C4.01133 1.9715 4.0767 2.21664 4.0767 2.48745C4.0767 2.80496 3.98332 3.09445 3.79655 3.35592C3.61445 3.61273 3.33196 3.78782 2.94909 3.88121L4.15374 5.8983H3.20123ZM1.47129 3.3139H2.35377C2.65259 3.3139 2.87672 3.23919 3.02613 3.08978C3.18022 2.94036 3.25726 2.73959 3.25726 2.48745C3.25726 2.23531 3.18255 2.03921 3.03314 1.89913C2.88372 1.75438 2.65726 1.68201 2.35377 1.68201H1.47129V3.3139Z" fill="#1E1E1E"/>
<path d="M4.83196 3.95124C4.83196 3.5637 4.91134 3.22051 5.07009 2.92169C5.23352 2.62286 5.45297 2.39173 5.72845 2.22831C6.0086 2.06022 6.31677 1.97617 6.65295 1.97617C6.95645 1.97617 7.22026 2.03687 7.44439 2.15827C7.67318 2.275 7.85528 2.42208 7.99068 2.59951V2.03921H8.79612V5.8983H7.99068V5.32399C7.85528 5.50609 7.67084 5.65784 7.43738 5.77924C7.20392 5.90064 6.93778 5.96134 6.63895 5.96134C6.30743 5.96134 6.00394 5.87729 5.72845 5.7092C5.45297 5.53644 5.23352 5.29831 5.07009 4.99481C4.91134 4.68665 4.83196 4.33879 4.83196 3.95124ZM7.99068 3.96525C7.99068 3.69911 7.93465 3.46798 7.82259 3.27188C7.7152 3.07577 7.57279 2.92635 7.39536 2.82363C7.21793 2.72091 7.02649 2.66955 6.82105 2.66955C6.6156 2.66955 6.42416 2.72091 6.24673 2.82363C6.0693 2.92168 5.92456 3.06877 5.8125 3.26487C5.70511 3.45631 5.65141 3.6851 5.65141 3.95124C5.65141 4.21739 5.70511 4.45085 5.8125 4.65163C5.92456 4.8524 6.0693 5.00649 6.24673 5.11388C6.42883 5.2166 6.62027 5.26796 6.82105 5.26796C7.02649 5.26796 7.21793 5.2166 7.39536 5.11388C7.57279 5.01115 7.7152 4.86174 7.82259 4.66563C7.93465 4.46486 7.99068 4.2314 7.99068 3.96525Z" fill="#1E1E1E"/>
<path d="M10.6433 2.59951C10.76 2.4034 10.9141 2.25165 11.1055 2.14426C11.3016 2.0322 11.5327 1.97617 11.7989 1.97617V2.80262H11.5958C11.2829 2.80262 11.0448 2.882 10.8814 3.04075C10.7226 3.1995 10.6433 3.47499 10.6433 3.8672V5.8983H9.84483V2.03921H10.6433V2.59951Z" fill="#1E1E1E"/>
<path d="M16.0697 3.8742C16.0697 4.01895 16.0604 4.14969 16.0417 4.26642H13.0931C13.1165 4.57458 13.2309 4.82205 13.4363 5.00882C13.6418 5.19559 13.8939 5.28897 14.1927 5.28897C14.6223 5.28897 14.9258 5.10921 15.1032 4.74968H15.9647C15.848 5.10454 15.6355 5.39636 15.3273 5.62516C15.0238 5.84928 14.6456 5.96134 14.1927 5.96134C13.8239 5.96134 13.4923 5.87963 13.1982 5.71621C12.9087 5.54811 12.6799 5.31465 12.5118 5.01582C12.3484 4.71233 12.2667 4.36214 12.2667 3.96525C12.2667 3.56837 12.346 3.22051 12.5048 2.92169C12.6682 2.61819 12.8947 2.38473 13.1842 2.2213C13.4783 2.05788 13.8145 1.97617 14.1927 1.97617C14.5569 1.97617 14.8814 2.05555 15.1662 2.2143C15.4511 2.37305 15.6729 2.59718 15.8316 2.88667C15.9904 3.17149 16.0697 3.50067 16.0697 3.8742ZM15.2363 3.62207C15.2316 3.32791 15.1266 3.09211 14.9211 2.91468C14.7157 2.73725 14.4612 2.64854 14.1577 2.64854C13.8822 2.64854 13.6464 2.73725 13.4503 2.91468C13.2542 3.08744 13.1375 3.32324 13.1001 3.62207H15.2363Z" fill="#1E1E1E"/>
<path d="M20.2787 5.94733C19.9519 5.94733 19.6577 5.8913 19.3962 5.77924C19.1347 5.66251 18.9293 5.49909 18.7799 5.28897C18.6305 5.07886 18.5558 4.83372 18.5558 4.55357H19.4102C19.4289 4.76369 19.5106 4.93645 19.6554 5.07185C19.8048 5.20726 20.0126 5.27496 20.2787 5.27496C20.5542 5.27496 20.769 5.2096 20.923 5.07886C21.0771 4.94345 21.1542 4.77069 21.1542 4.56058C21.1542 4.39715 21.1051 4.26408 21.0071 4.16136C20.9137 4.05864 20.7946 3.97926 20.6499 3.92323C20.5098 3.8672 20.3137 3.8065 20.0616 3.74113C19.7441 3.65709 19.4849 3.57304 19.2842 3.48899C19.0881 3.40028 18.92 3.26487 18.7799 3.08277C18.6398 2.90067 18.5698 2.65788 18.5698 2.35438C18.5698 2.07422 18.6398 1.82909 18.7799 1.61898C18.92 1.40886 19.1161 1.24777 19.3682 1.13571C19.6203 1.02365 19.9122 0.967623 20.2437 0.967623C20.7153 0.967623 21.1005 1.08669 21.3993 1.32482C21.7028 1.55828 21.8709 1.88045 21.9036 2.29134H21.0211C21.0071 2.11391 20.923 1.96216 20.769 1.83609C20.6149 1.71003 20.4118 1.64699 20.1596 1.64699C19.9308 1.64699 19.7441 1.70536 19.5993 1.82209C19.4546 1.93882 19.3822 2.10691 19.3822 2.32636C19.3822 2.47578 19.4266 2.59951 19.5153 2.69756C19.6087 2.79095 19.7254 2.86565 19.8655 2.92169C20.0056 2.97772 20.197 3.03842 20.4398 3.10378C20.762 3.1925 21.0234 3.28121 21.2242 3.36993C21.4297 3.45864 21.6024 3.59639 21.7425 3.78315C21.8872 3.96525 21.9596 4.21039 21.9596 4.51855C21.9596 4.76602 21.8919 4.99948 21.7565 5.21893C21.6258 5.43839 21.432 5.61582 21.1752 5.75122C20.9231 5.88196 20.6242 5.94733 20.2787 5.94733Z" fill="#1E1E1E"/>
<path d="M23.7002 2.60651C23.8356 2.42908 24.02 2.27967 24.2535 2.15827C24.4869 2.03687 24.7507 1.97617 25.0449 1.97617C25.3811 1.97617 25.6869 2.06022 25.9624 2.22831C26.2426 2.39173 26.462 2.62286 26.6208 2.92169C26.7795 3.22051 26.8589 3.5637 26.8589 3.95124C26.8589 4.33879 26.7795 4.68665 26.6208 4.99481C26.462 5.29831 26.2426 5.53644 25.9624 5.7092C25.6869 5.87729 25.3811 5.96134 25.0449 5.96134C24.7507 5.96134 24.4893 5.90297 24.2605 5.78624C24.0317 5.66484 23.8449 5.51543 23.7002 5.338V7.7333H22.9017V2.03921H23.7002V2.60651ZM26.0464 3.95124C26.0464 3.6851 25.9904 3.45631 25.8784 3.26487C25.771 3.06877 25.6262 2.92168 25.4441 2.82363C25.2667 2.72091 25.0753 2.66955 24.8698 2.66955C24.669 2.66955 24.4776 2.72091 24.2955 2.82363C24.1181 2.92635 23.9733 3.07577 23.8613 3.27188C23.7539 3.46798 23.7002 3.69911 23.7002 3.96525C23.7002 4.2314 23.7539 4.46486 23.8613 4.66563C23.9733 4.86174 24.1181 5.01115 24.2955 5.11388C24.4776 5.2166 24.669 5.26796 24.8698 5.26796C25.0753 5.26796 25.2667 5.2166 25.4441 5.11388C25.6262 5.00649 25.771 4.8524 25.8784 4.65163C25.9904 4.45085 26.0464 4.21739 26.0464 3.95124Z" fill="#1E1E1E"/>
<path d="M31.1854 3.8742C31.1854 4.01895 31.176 4.14969 31.1574 4.26642H28.2088C28.2321 4.57458 28.3465 4.82205 28.5519 5.00882C28.7574 5.19559 29.0095 5.28897 29.3084 5.28897C29.7379 5.28897 30.0414 5.10921 30.2189 4.74968H31.0803C30.9636 5.10454 30.7511 5.39636 30.443 5.62516C30.1395 5.84928 29.7613 5.96134 29.3084 5.96134C28.9395 5.96134 28.608 5.87963 28.3138 5.71621C28.0243 5.54811 27.7955 5.31465 27.6274 5.01582C27.464 4.71233 27.3823 4.36214 27.3823 3.96525C27.3823 3.56837 27.4617 3.22051 27.6204 2.92169C27.7839 2.61819 28.0103 2.38473 28.2998 2.2213C28.594 2.05788 28.9302 1.97617 29.3084 1.97617C29.6726 1.97617 29.9971 2.05555 30.2819 2.2143C30.5667 2.37305 30.7885 2.59718 30.9473 2.88667C31.106 3.17149 31.1854 3.50067 31.1854 3.8742ZM30.3519 3.62207C30.3473 3.32791 30.2422 3.09211 30.0368 2.91468C29.8313 2.73725 29.5768 2.64854 29.2733 2.64854C28.9979 2.64854 28.7621 2.73725 28.566 2.91468C28.3699 3.08744 28.2531 3.32324 28.2158 3.62207H30.3519Z" fill="#1E1E1E"/>
<path d="M31.705 3.96525C31.705 3.56837 31.7844 3.22051 31.9431 2.92169C32.1065 2.61819 32.3307 2.38473 32.6155 2.2213C32.9003 2.05788 33.2271 1.97617 33.596 1.97617C34.0629 1.97617 34.4481 2.08823 34.7516 2.31235C35.0598 2.53181 35.2676 2.84698 35.375 3.25787H34.5135C34.4435 3.06643 34.3314 2.91702 34.1773 2.80962C34.0232 2.70223 33.8295 2.64854 33.596 2.64854C33.2692 2.64854 33.0077 2.76527 32.8116 2.99873C32.6201 3.22752 32.5244 3.54969 32.5244 3.96525C32.5244 4.38081 32.6201 4.70532 32.8116 4.93878C33.0077 5.17224 33.2692 5.28897 33.596 5.28897C34.0583 5.28897 34.3641 5.08586 34.5135 4.67964H35.375C35.2629 5.07185 35.0528 5.38469 34.7446 5.61815C34.4365 5.84694 34.0536 5.96134 33.596 5.96134C33.2271 5.96134 32.9003 5.87963 32.6155 5.71621C32.3307 5.54811 32.1065 5.31465 31.9431 5.01582C31.7844 4.71233 31.705 4.36214 31.705 3.96525Z" fill="#1E1E1E"/>
<path d="M36.5769 1.52793C36.4321 1.52793 36.3107 1.4789 36.2127 1.38085C36.1146 1.28279 36.0656 1.16139 36.0656 1.01665C36.0656 0.871904 36.1146 0.750504 36.2127 0.652451C36.3107 0.554398 36.4321 0.505371 36.5769 0.505371C36.717 0.505371 36.836 0.554398 36.9341 0.652451C37.0321 0.750504 37.0812 0.871904 37.0812 1.01665C37.0812 1.16139 37.0321 1.28279 36.9341 1.38085C36.836 1.4789 36.717 1.52793 36.5769 1.52793ZM36.9691 2.03921V5.8983H36.1707V2.03921H36.9691Z" fill="#1E1E1E"/>
<path d="M41.5543 3.8742C41.5543 4.01895 41.545 4.14969 41.5263 4.26642H38.5777C38.601 4.57458 38.7154 4.82205 38.9209 5.00882C39.1263 5.19559 39.3785 5.28897 39.6773 5.28897C40.1068 5.28897 40.4103 5.10921 40.5878 4.74968H41.4492C41.3325 5.10454 41.1201 5.39636 40.8119 5.62516C40.5084 5.84928 40.1302 5.96134 39.6773 5.96134C39.3084 5.96134 38.9769 5.87963 38.6827 5.71621C38.3932 5.54811 38.1645 5.31465 37.9964 5.01582C37.8329 4.71233 37.7512 4.36214 37.7512 3.96525C37.7512 3.56837 37.8306 3.22051 37.9894 2.92169C38.1528 2.61819 38.3792 2.38473 38.6687 2.2213C38.9629 2.05788 39.2991 1.97617 39.6773 1.97617C40.0415 1.97617 40.366 2.05555 40.6508 2.2143C40.9356 2.37305 41.1574 2.59718 41.3162 2.88667C41.4749 3.17149 41.5543 3.50067 41.5543 3.8742ZM40.7208 3.62207C40.7162 3.32791 40.6111 3.09211 40.4057 2.91468C40.2002 2.73725 39.9458 2.64854 39.6423 2.64854C39.3668 2.64854 39.131 2.73725 38.9349 2.91468C38.7388 3.08744 38.622 3.32324 38.5847 3.62207H40.7208Z" fill="#1E1E1E"/>
<path d="M43.7408 5.96134C43.4373 5.96134 43.1642 5.90764 42.9214 5.80025C42.6832 5.68819 42.4941 5.53877 42.354 5.35201C42.214 5.16057 42.1393 4.94812 42.1299 4.71466H42.9564C42.9704 4.87808 43.0474 5.01582 43.1875 5.12788C43.3322 5.23528 43.512 5.28897 43.7268 5.28897C43.9509 5.28897 44.1237 5.24695 44.2451 5.1629C44.3711 5.07419 44.4342 4.96213 44.4342 4.82672C44.4342 4.68198 44.3641 4.57458 44.2241 4.50455C44.0887 4.43451 43.8715 4.35747 43.5727 4.27342C43.2832 4.19404 43.0474 4.117 42.8653 4.04229C42.6832 3.96759 42.5245 3.85319 42.3891 3.69911C42.2583 3.54502 42.193 3.34191 42.193 3.08978C42.193 2.88433 42.2537 2.69756 42.3751 2.52947C42.4965 2.35671 42.6692 2.2213 42.8933 2.12325C43.1221 2.0252 43.3836 1.97617 43.6778 1.97617C44.1167 1.97617 44.4692 2.08823 44.7353 2.31235C45.0062 2.53181 45.1509 2.83297 45.1696 3.21585H44.3711C44.3571 3.04308 44.2871 2.90534 44.161 2.80262C44.035 2.6999 43.8645 2.64854 43.6498 2.64854C43.4396 2.64854 43.2785 2.68823 43.1665 2.7676C43.0544 2.84698 42.9984 2.95203 42.9984 3.08277C42.9984 3.1855 43.0358 3.27188 43.1105 3.34191C43.1852 3.41195 43.2762 3.46798 43.3836 3.51C43.491 3.54736 43.6498 3.59639 43.8599 3.65708C44.14 3.73179 44.3688 3.80883 44.5462 3.88821C44.7283 3.96292 44.8848 4.07498 45.0155 4.22439C45.1462 4.37381 45.2139 4.57225 45.2186 4.81972C45.2186 5.03917 45.1579 5.23528 45.0365 5.40804C44.9151 5.5808 44.7423 5.7162 44.5182 5.81426C44.2988 5.91231 44.0396 5.96134 43.7408 5.96134Z" fill="#1E1E1E"/>
</g>
</svg>
