<svg width="24" height="6" viewBox="0 0 24 6" fill="none" xmlns="http://www.w3.org/2000/svg">
<g id="Sellers">
<path d="M2.68412 5.7283C2.35727 5.7283 2.06311 5.67227 1.80164 5.56021C1.54016 5.44348 1.33472 5.28006 1.1853 5.06995C1.03589 4.85983 0.961182 4.6147 0.961182 4.33455H1.81565C1.83432 4.54466 1.91603 4.71742 2.06078 4.85283C2.21019 4.98824 2.41797 5.05594 2.68412 5.05594C2.9596 5.05594 3.17439 4.99057 3.32847 4.85983C3.48255 4.72443 3.55959 4.55167 3.55959 4.34155C3.55959 4.17813 3.51057 4.04506 3.41251 3.94233C3.31913 3.83961 3.20007 3.76024 3.05532 3.7042C2.91524 3.64817 2.71914 3.58747 2.467 3.52211C2.14949 3.43806 1.89035 3.35401 1.68958 3.26997C1.49347 3.18125 1.32538 3.04585 1.1853 2.86375C1.04523 2.68165 0.975189 2.43885 0.975189 2.13535C0.975189 1.8552 1.04523 1.61007 1.1853 1.39995C1.32538 1.18984 1.52149 1.02875 1.77362 0.916688C2.02576 0.804627 2.31759 0.748597 2.6491 0.748597C3.12069 0.748597 3.5059 0.867662 3.80473 1.10579C4.10823 1.33925 4.27632 1.66143 4.309 2.07232H3.42652C3.41251 1.89489 3.32847 1.74314 3.17439 1.61707C3.0203 1.491 2.81719 1.42797 2.56505 1.42797C2.33626 1.42797 2.14949 1.48633 2.00475 1.60306C1.86 1.71979 1.78763 1.88788 1.78763 2.10734C1.78763 2.25675 1.83199 2.38048 1.9207 2.47854C2.01409 2.57192 2.13082 2.64663 2.27089 2.70266C2.41097 2.75869 2.60241 2.81939 2.84521 2.88476C3.16738 2.97347 3.42886 3.06219 3.62963 3.1509C3.83508 3.23962 4.00784 3.37736 4.14791 3.56413C4.29266 3.74623 4.36503 3.99136 4.36503 4.29953C4.36503 4.547 4.29733 4.78046 4.16192 4.99991C4.03118 5.21936 3.83741 5.39679 3.58061 5.5322C3.32847 5.66294 3.02964 5.7283 2.68412 5.7283Z" fill="#1E1E1E"/>
<path d="M8.84408 3.65518C8.84408 3.79992 8.83474 3.93066 8.81606 4.04739H5.86746C5.8908 4.35556 6.0052 4.60303 6.21065 4.78979C6.41609 4.97656 6.66823 5.06995 6.96706 5.06995C7.39662 5.06995 7.70012 4.89018 7.87755 4.53065H8.73902C8.62229 4.88551 8.40984 5.17734 8.10167 5.40613C7.79818 5.63025 7.41997 5.74231 6.96706 5.74231C6.59819 5.74231 6.26668 5.6606 5.97252 5.49718C5.68303 5.32909 5.45423 5.09563 5.28614 4.7968C5.12272 4.4933 5.04101 4.14311 5.04101 3.74623C5.04101 3.34934 5.12039 3.00149 5.27914 2.70266C5.44256 2.39916 5.66902 2.1657 5.95851 2.00228C6.25267 1.83886 6.58885 1.75715 6.96706 1.75715C7.33125 1.75715 7.65577 1.83652 7.94059 1.99528C8.22541 2.15403 8.4472 2.37815 8.60595 2.66764C8.7647 2.95246 8.84408 3.28164 8.84408 3.65518ZM8.01062 3.40304C8.00596 3.10888 7.9009 2.87309 7.69545 2.69566C7.49001 2.51823 7.23554 2.42951 6.93204 2.42951C6.65655 2.42951 6.42076 2.51823 6.22465 2.69566C6.02855 2.86842 5.91182 3.10421 5.87446 3.40304H8.01062Z" fill="#1E1E1E"/>
<path d="M10.4283 0.49646V5.67928H9.62982V0.49646H10.4283Z" fill="#1E1E1E"/>
<path d="M12.275 0.49646V5.67928H11.4765V0.49646H12.275Z" fill="#1E1E1E"/>
<path d="M16.8602 3.65518C16.8602 3.79992 16.8508 3.93066 16.8321 4.04739H13.8835C13.9069 4.35556 14.0213 4.60303 14.2267 4.78979C14.4322 4.97656 14.6843 5.06995 14.9831 5.06995C15.4127 5.06995 15.7162 4.89018 15.8936 4.53065H16.7551C16.6384 4.88551 16.4259 5.17734 16.1178 5.40613C15.8143 5.63025 15.436 5.74231 14.9831 5.74231C14.6143 5.74231 14.2828 5.6606 13.9886 5.49718C13.6991 5.32909 13.4703 5.09563 13.3022 4.7968C13.1388 4.4933 13.0571 4.14311 13.0571 3.74623C13.0571 3.34934 13.1365 3.00149 13.2952 2.70266C13.4586 2.39916 13.6851 2.1657 13.9746 2.00228C14.2687 1.83886 14.6049 1.75715 14.9831 1.75715C15.3473 1.75715 15.6718 1.83652 15.9567 1.99528C16.2415 2.15403 16.4633 2.37815 16.622 2.66764C16.7808 2.95246 16.8602 3.28164 16.8602 3.65518ZM16.0267 3.40304C16.022 3.10888 15.917 2.87309 15.7115 2.69566C15.5061 2.51823 15.2516 2.42951 14.9481 2.42951C14.6726 2.42951 14.4368 2.51823 14.2407 2.69566C14.0446 2.86842 13.9279 3.10421 13.8905 3.40304H16.0267Z" fill="#1E1E1E"/>
<path d="M18.4443 2.38048C18.5611 2.18438 18.7151 2.03263 18.9066 1.92524C19.1027 1.81318 19.3338 1.75715 19.6 1.75715V2.58359H19.3968C19.084 2.58359 18.8459 2.66297 18.6825 2.82172C18.5237 2.98048 18.4443 3.25596 18.4443 3.64817V5.67928H17.6459V1.82018H18.4443V2.38048Z" fill="#1E1E1E"/>
<path d="M21.7346 5.74231C21.4311 5.74231 21.158 5.68862 20.9152 5.58122C20.6771 5.46916 20.488 5.31975 20.3479 5.13298C20.2078 4.94154 20.1331 4.72909 20.1238 4.49563H20.9502C20.9642 4.65906 21.0413 4.7968 21.1813 4.90886C21.3261 5.01625 21.5058 5.06995 21.7206 5.06995C21.9448 5.06995 22.1175 5.02792 22.2389 4.94388C22.365 4.85516 22.428 4.7431 22.428 4.6077C22.428 4.46295 22.358 4.35556 22.2179 4.28552C22.0825 4.21548 21.8654 4.13844 21.5665 4.05439C21.2771 3.97502 21.0413 3.89798 20.8592 3.82327C20.6771 3.74856 20.5183 3.63417 20.3829 3.48008C20.2522 3.326 20.1868 3.12289 20.1868 2.87075C20.1868 2.66531 20.2475 2.47854 20.3689 2.31045C20.4903 2.13769 20.6631 2.00228 20.8872 1.90423C21.116 1.80617 21.3774 1.75715 21.6716 1.75715C22.1105 1.75715 22.463 1.86921 22.7292 2.09333C23 2.31278 23.1447 2.61394 23.1634 2.99682H22.365C22.351 2.82406 22.2809 2.68632 22.1549 2.58359C22.0288 2.48087 21.8584 2.42951 21.6436 2.42951C21.4335 2.42951 21.2724 2.4692 21.1603 2.54858C21.0483 2.62795 20.9922 2.73301 20.9922 2.86375C20.9922 2.96647 21.0296 3.05285 21.1043 3.12289C21.179 3.19293 21.2701 3.24896 21.3774 3.29098C21.4848 3.32833 21.6436 3.37736 21.8537 3.43806C22.1339 3.51277 22.3626 3.58981 22.5401 3.66919C22.7222 3.74389 22.8786 3.85595 23.0093 4.00537C23.1401 4.15478 23.2078 4.35322 23.2124 4.60069C23.2124 4.82014 23.1517 5.01625 23.0303 5.18901C22.9089 5.36177 22.7362 5.49718 22.5121 5.59523C22.2926 5.69329 22.0335 5.74231 21.7346 5.74231Z" fill="#1E1E1E"/>
</g>
</svg>
