<svg width="207" height="101" viewBox="0 0 207 101" fill="none" xmlns="http://www.w3.org/2000/svg">
<path id="Vector 186 (Stroke)" fill-rule="evenodd" clip-rule="evenodd" d="M1.88208 32.5812C1.8244 34.2877 1.76715 35.9815 1.67939 37.6585C1.65693 38.0877 1.29078 38.4174 0.861579 38.3949C0.432378 38.3725 0.102651 38.0063 0.125113 37.5771C0.20891 35.976 0.266149 34.2955 0.324392 32.5857C0.40209 30.3046 0.481572 27.9712 0.628268 25.7038C0.887576 21.6959 1.36288 17.7201 2.43831 14.152C3.51515 10.5791 5.20532 7.37583 7.91972 4.95598C10.6412 2.52982 14.3295 0.947222 19.299 0.511415C24.1675 0.0844667 29.7148 2.49309 34.3956 5.9215C37.1076 7.90789 39.5867 10.2787 41.5261 12.7312C45.6467 12.2961 50.7239 13.8083 55.8811 16.4606C61.316 19.2557 66.9584 23.3783 71.8703 28.084C73.2276 29.3844 74.5318 30.7317 75.7622 32.1107C76.449 31.7116 77.1706 31.3716 77.9289 31.0919C83.5643 29.0134 90.9455 30.3751 100.453 34.8928C108.064 38.5093 113.409 45.3918 116.464 52.9398C116.747 53.64 117.011 54.3467 117.256 55.0579C119.926 53.0577 122.85 51.6733 125.817 51.2363C143.753 48.5943 162.244 46.0597 179.622 55.2986C181.986 56.5555 185.188 58.8367 188.528 61.3879C189.496 62.1271 190.479 62.892 191.461 63.6649C189.754 57.9882 188.656 52.4234 187.767 46.7239C186.543 43.2844 185.728 39.8366 185.516 36.48C185.47 35.7491 185.391 34.6861 185.306 33.5383C185.173 31.7434 185.025 29.7411 184.962 28.4775C184.936 27.9647 184.922 27.5319 184.933 27.277C184.935 27.2138 184.941 27.1335 184.954 27.0556C184.96 27.0201 184.973 26.9501 185.003 26.8712C185.018 26.8315 185.048 26.7641 185.1 26.6908C185.149 26.6211 185.253 26.4981 185.433 26.4208C185.909 26.2156 186.255 26.5361 186.328 26.6162C186.418 26.7147 186.464 26.8149 186.478 26.848C186.517 26.9333 186.542 27.0233 186.559 27.0862C186.69 27.5812 186.922 29.067 187.308 31.9564C187.477 33.2188 187.641 34.4644 187.802 35.6954C188.282 39.3502 188.745 42.8773 189.282 46.3401C190.416 49.496 191.912 52.672 193.627 55.7893C197.169 62.2302 201.608 68.3606 205.588 73.4638C205.993 73.9825 206.297 74.4049 206.5 74.7335C206.6 74.8963 206.689 75.0565 206.751 75.2069C206.798 75.3212 206.894 75.5713 206.845 75.853C206.814 76.0253 206.726 76.2273 206.536 76.3804C206.356 76.525 206.162 76.5646 206.03 76.5724C205.795 76.5863 205.584 76.5103 205.467 76.463C205.197 76.354 204.866 76.1573 204.513 75.9246C203.694 75.3848 202.496 74.4759 201.056 73.3408C201.021 73.3732 200.987 73.4023 200.954 73.4281C200.805 73.5437 200.638 73.6339 200.476 73.7061C199.856 73.9828 198.909 74.1729 197.983 74.3147C197.031 74.4605 196.003 74.5685 195.172 74.6527C194.753 74.6952 194.389 74.7311 194.1 74.7634C193.957 74.7794 193.838 74.7939 193.745 74.8071C193.698 74.8137 193.661 74.8195 193.632 74.8246C193.618 74.8271 193.607 74.8292 193.599 74.8308C193.595 74.8317 193.592 74.8324 193.59 74.8328L193.588 74.8333C186.465 76.6341 181.504 81.5862 177.162 87.1936C176.209 88.4237 175.283 89.8407 174.334 91.2959L174.291 91.3627C173.363 92.7853 172.414 94.2416 171.426 95.5308C169.467 98.0865 167.12 100.309 164.14 99.9961C163.713 99.9512 163.403 99.5682 163.448 99.1408C163.493 98.7134 163.875 98.4033 164.303 98.4482C166.357 98.664 168.221 97.1533 170.191 94.5839C171.142 93.3423 172.064 91.9284 173.004 90.4865L173.03 90.446C173.972 89.0016 174.933 87.5297 175.931 86.2406C180.332 80.5583 185.563 75.2566 193.206 73.3244C193.376 73.2816 193.65 73.2476 193.927 73.2166C194.226 73.1832 194.604 73.146 195.015 73.1042C195.847 73.02 196.839 72.9153 197.747 72.7762C198.457 72.6675 199.062 72.5451 199.49 72.4133C199.094 72.1261 198.623 71.8139 198.1 71.4729C197.99 71.4013 197.878 71.3285 197.764 71.2547C197.132 70.8438 196.45 70.4005 195.795 69.9377C195.023 69.3919 194.262 68.8005 193.634 68.1715C193.085 67.6213 192.601 67.0058 192.317 66.3285C190.744 65.0749 189.143 63.8162 187.583 62.6247C184.242 60.0725 181.13 57.8633 178.891 56.6729C162.029 47.7081 144.048 50.1239 126.044 52.7761C123.235 53.1898 120.391 54.5707 117.762 56.6299C119.714 63.1088 120.071 69.8368 118.761 75.3346C118.7 75.5906 118.647 76.0756 118.605 76.7827C118.565 77.4724 118.539 78.3214 118.518 79.2747C118.503 79.9699 118.491 80.7216 118.478 81.5027C118.456 82.8489 118.432 84.2823 118.39 85.6628C118.323 87.8428 118.208 89.9563 117.967 91.4786C117.849 92.2252 117.69 92.9082 117.45 93.3925C117.333 93.6309 117.154 93.9093 116.87 94.0932C116.536 94.3101 116.143 94.3398 115.779 94.1891C110.264 91.9053 107.069 88.1882 105.7 83.8326C104.34 79.5066 104.805 74.636 106.427 70.0399C108.051 65.4395 110.852 61.0549 114.252 57.6669C114.805 57.1156 115.376 56.5892 115.961 56.0917C115.678 55.2292 115.364 54.3719 115.021 53.5237C112.07 46.2329 106.955 39.7052 99.7851 36.2985C90.3626 31.8213 83.4843 30.7018 78.4675 32.5522C77.8933 32.764 77.3397 33.0162 76.8063 33.3094C79.5688 36.5601 81.8992 39.9579 83.5374 43.3079C86.0728 48.4922 87.013 53.6986 85.1223 58.0658C83.5545 61.6872 81.3695 63.7346 78.9159 64.4124C76.47 65.088 73.9536 64.3478 71.8348 62.8108C67.626 59.7577 64.6562 53.3341 66.3482 47.076C68.1185 40.5285 70.7077 35.758 74.4489 32.9771C73.2933 31.691 72.0693 30.43 70.7936 29.2079C65.9749 24.5915 60.4531 20.5621 55.1692 17.8446C50.5212 15.4542 46.1469 14.125 42.628 14.218C43.5323 15.5259 44.2683 16.8397 44.7907 18.1144C45.342 19.4594 46.0189 20.8408 46.7197 22.2709C46.8667 22.5709 47.0147 22.873 47.1628 23.1773C48.0098 24.9174 48.8544 26.7199 49.4669 28.53C50.6946 32.1581 51.0336 35.9575 48.5031 39.4885C44.6332 44.8885 37.4523 46.9697 30.656 43.399C25.9486 40.9256 23.3711 37.8663 22.4704 34.5572C21.5723 31.2578 22.3857 27.872 24.1238 24.8277C25.8619 21.7835 28.5553 19.0204 31.5467 16.9041C34.1591 15.0559 37.0395 13.6723 39.7672 13.0358C38.0195 10.949 35.8547 8.91943 33.476 7.17713C28.9204 3.84046 23.7533 1.68316 19.435 2.06187C14.7377 2.4738 11.3841 3.95264 8.95542 6.11775C6.5197 8.28916 4.9515 11.2069 3.9285 14.6011C2.9041 18 2.4381 21.8372 2.18142 25.8043C2.03424 28.0792 1.95778 30.3412 1.88208 32.5812ZM40.845 14.4013C38.1642 14.8857 35.1805 16.2398 32.4456 18.1746C29.6015 20.1868 27.0797 22.7895 25.4754 25.5994C23.8711 28.4093 23.2148 31.366 23.9721 34.1484C24.7268 36.9211 26.9297 39.683 31.38 42.0212C37.4828 45.2276 43.8169 43.3557 47.238 38.5819C49.3487 35.6367 49.146 32.4374 47.9926 29.0289C47.4146 27.3206 46.6088 25.5953 45.7634 23.8585C45.6197 23.5633 45.4747 23.2675 45.3296 22.9713C44.6282 21.5403 43.9235 20.1024 43.3506 18.7046C42.7822 17.3178 41.9245 15.8578 40.845 14.4013ZM75.4801 34.1529C72.0853 36.6256 69.5999 41.0126 67.8507 47.4823C66.3433 53.0574 69.0114 58.8399 72.7487 61.551C74.6028 62.896 76.6365 63.4273 78.5015 62.9122C80.3587 62.3992 82.2454 60.7934 83.694 57.4474C85.3214 53.6885 84.5889 49.0006 82.1393 43.9916C80.5401 40.7216 78.2355 37.3728 75.4801 34.1529ZM116.46 57.7213C116.084 58.0573 115.714 58.407 115.35 58.7694C112.113 61.9956 109.439 66.1813 107.895 70.5578C106.349 74.9387 105.954 79.4515 107.185 83.3658C108.383 87.1776 111.147 90.5034 116.088 92.6304C116.206 92.3565 116.326 91.8945 116.43 91.2352C116.654 89.8203 116.768 87.795 116.835 85.6152C116.877 84.2425 116.9 82.8344 116.921 81.498C116.934 80.7136 116.946 79.954 116.962 79.2407C116.983 78.2831 117.01 77.4111 117.052 76.6921C117.093 75.9905 117.15 75.3792 117.247 74.9739C118.442 69.9584 118.177 63.7717 116.46 57.7213ZM193.633 65.3877C195.004 66.4815 196.347 67.5657 197.618 68.5911C197.899 68.8172 198.175 69.0404 198.448 69.2603C200.373 70.8126 202.083 72.1851 203.424 73.211C199.669 68.3284 195.585 62.5791 192.263 56.5393C191.632 55.3911 191.027 54.2305 190.456 53.0617C191.268 57.1663 192.274 61.238 193.633 65.3877Z" fill="black"/>
</svg>
