<svg width="230" height="19" viewBox="0 0 230 19" fill="none" xmlns="http://www.w3.org/2000/svg">
<g id="&#236;&#176;&#190;&#234;&#179;&#160;&#236;&#139;&#182;&#236;&#157;&#128; &#235;&#143;&#153;&#235;&#172;&#188;&#236;&#157;&#132; &#234;&#178;&#128;&#236;&#131;&#137;&#237;&#149;&#152;&#236;&#132;&#184;&#236;&#154;&#148;">
<path d="M4.5 3.46002H5.86V4.24003C5.86 7.32002 3.82 9.82003 0.78 10.78L0 9.48002C2.68 8.66002 4.5 6.60002 4.5 4.24003V3.46002ZM4.8 3.46002H6.16V4.24003C6.16 6.40002 7.92 8.36002 10.58 9.14002L9.8 10.42C6.78 9.52003 4.8 7.12002 4.8 4.24003V3.46002ZM0.5 2.58003H10.14V3.92002H0.5V2.58003ZM4.5 0.400024H6.16V3.14002H4.5V0.400024ZM12.36 0.480025H14.02V10.98H12.36V0.480025ZM13.56 4.94002H16.7V6.32002H13.56V4.94002ZM7.54 12.48H8.96V12.96C8.96 15.8 5.96 17.9 2.42 18.5L1.78 17.22C4.9 16.74 7.54 14.98 7.54 12.96V12.48ZM7.86 12.48H9.28V12.96C9.28 14.94 11.96 16.74 15.02 17.24L14.4 18.52C10.86 17.92 7.86 15.74 7.86 12.96V12.48ZM2.48 11.96H14.34V13.3H2.48V11.96Z" fill="black" fill-opacity="0.5"/>
<path d="M20.1184 2.28002H31.7584V3.66002H20.1184V2.28002ZM18.3984 14.66H34.7384V16.04H18.3984V14.66ZM24.7384 8.20003H26.3984V15.34H24.7384V8.20003ZM31.1384 2.28002H32.7784V4.08003C32.7784 6.32002 32.7784 8.80002 32.1184 12.46L30.4584 12.24C31.1384 8.78002 31.1384 6.24002 31.1384 4.08003V2.28002Z" fill="black" fill-opacity="0.5"/>
<path d="M49.9369 0.500024H51.6169V10.52H49.9369V0.500024ZM41.4969 1.14002H42.8769V2.90002C42.8769 6.24002 40.7969 9.06002 37.7369 10.16L36.8969 8.86003C39.6169 7.90003 41.4969 5.50002 41.4969 2.90002V1.14002ZM41.7969 1.14002H43.1569V2.90002C43.1569 5.42002 45.0569 7.64003 47.7369 8.52003L46.9169 9.84002C43.8769 8.80002 41.7969 6.14002 41.7969 2.90002V1.14002ZM39.6569 11.6H51.7169V12.96H39.6569V11.6ZM39.4769 16.98H51.9169V18.32H39.4769V16.98ZM42.1369 12.18H43.7569V17.76H42.1369V12.18ZM47.6169 12.18H49.2569V17.76H47.6169V12.18Z" fill="black" fill-opacity="0.5"/>
<path d="M55.1753 9.98002H71.5153V11.34H55.1753V9.98002ZM57.2953 16.8H69.7153V18.16H57.2953V16.8ZM57.2953 12.92H58.9553V17.22H57.2953V12.92ZM63.3553 1.08002C67.2153 1.08002 69.7153 2.44002 69.7153 4.70003C69.7153 6.94002 67.2153 8.30002 63.3553 8.30002C59.4753 8.30002 56.9953 6.94002 56.9953 4.70003C56.9953 2.44002 59.4753 1.08002 63.3553 1.08002ZM63.3553 2.44002C60.5153 2.44002 58.6953 3.28002 58.6953 4.70003C58.6953 6.12002 60.5153 6.96002 63.3553 6.96002C66.1953 6.96002 68.0153 6.12002 68.0153 4.70003C68.0153 3.28002 66.1953 2.44002 63.3553 2.44002Z" fill="black" fill-opacity="0.5"/>
<path d="M78.7891 9.38003H95.1291V10.74H78.7891V9.38003ZM86.1291 6.48002H87.7691V9.94003H86.1291V6.48002ZM80.8491 5.96002H93.2291V7.32002H80.8491V5.96002ZM80.8491 1.30002H93.0891V2.64002H82.4891V6.76002H80.8491V1.30002ZM86.9291 12.04C90.7891 12.04 93.1291 13.22 93.1291 15.28C93.1291 17.38 90.7891 18.54 86.9291 18.54C83.0691 18.54 80.7291 17.38 80.7291 15.28C80.7291 13.22 83.0691 12.04 86.9291 12.04ZM86.9291 13.32C84.1091 13.32 82.4091 14.04 82.4091 15.28C82.4091 16.54 84.1091 17.24 86.9291 17.24C89.7691 17.24 91.4491 16.54 91.4491 15.28C91.4491 14.04 89.7691 13.32 86.9291 13.32Z" fill="black" fill-opacity="0.5"/>
<path d="M104.507 9.02003H106.147V11.8H104.507V9.02003ZM97.1675 8.10002H113.507V9.44003H97.1675V8.10002ZM99.2875 1.08002H111.388V6.58003H99.2875V1.08002ZM109.768 2.40002H100.927V5.26003H109.768V2.40002ZM99.1475 11.2H111.427V15.26H100.827V17.46H99.1875V14.06H109.787V12.48H99.1475V11.2ZM99.1875 17.06H111.967V18.36H99.1875V17.06Z" fill="black" fill-opacity="0.5"/>
<path d="M123.746 0.780024C127.726 0.780024 130.106 1.90002 130.106 3.92002C130.106 5.94002 127.726 7.06002 123.746 7.06002C119.746 7.06002 117.386 5.94002 117.386 3.92002C117.386 1.90002 119.746 0.780024 123.746 0.780024ZM123.746 2.04002C120.786 2.04002 119.086 2.72002 119.086 3.92002C119.086 5.12002 120.786 5.80003 123.746 5.80003C126.686 5.80003 128.386 5.12002 128.386 3.92002C128.386 2.72002 126.686 2.04002 123.746 2.04002ZM115.566 8.26003H131.906V9.60003H115.566V8.26003ZM117.546 11.14H129.826V15.22H119.226V17.42H117.586V14.02H128.186V12.42H117.546V11.14ZM117.586 17.06H130.366V18.36H117.586V17.06Z" fill="black" fill-opacity="0.5"/>
<path d="M146.7 1.64003H148.44C148.44 6.20002 145.24 9.46002 140.04 10.92L139.36 9.62003C143.94 8.32003 146.7 5.70003 146.7 2.34002V1.64003ZM140.3 1.64003H147.82V2.98002H140.3V1.64003ZM152.38 0.480025H154.04V10.8H152.38V0.480025ZM148.46 5.12002H152.7V6.50002H148.46V5.12002ZM142.38 11.56H154.04V18.32H142.38V11.56ZM152.42 12.9H144.02V16.96H152.42V12.9Z" fill="black" fill-opacity="0.5"/>
<path d="M161.358 1.56002H162.678V3.98002C162.678 6.70002 161.138 9.56003 158.478 10.78L157.578 9.48002C159.938 8.42002 161.358 6.04002 161.358 3.98002V1.56002ZM161.618 1.56002H162.938V3.98002C162.938 6.04002 164.278 8.10002 166.598 9.04002L165.718 10.32C163.098 9.22002 161.618 6.68002 161.618 3.98002V1.56002ZM171.218 0.500024H172.798V11.42H171.218V0.500024ZM168.298 5.18002H171.718V6.56002H168.298V5.18002ZM167.338 0.800024H168.918V11.32H167.338V0.800024ZM160.678 12.4H172.798V18.56H171.158V13.76H160.678V12.4Z" fill="black" fill-opacity="0.5"/>
<path d="M188.217 0.480025H189.877V18.56H188.217V0.480025ZM189.477 7.90002H192.837V9.30002H189.477V7.90002ZM175.877 3.36002H186.537V4.72002H175.877V3.36002ZM181.277 6.22002C183.837 6.22002 185.677 7.94002 185.677 10.38C185.677 12.82 183.837 14.54 181.277 14.54C178.737 14.54 176.877 12.82 176.877 10.38C176.877 7.94002 178.737 6.22002 181.277 6.22002ZM181.277 7.60002C179.637 7.60002 178.457 8.74002 178.457 10.38C178.457 12 179.637 13.16 181.277 13.16C182.917 13.16 184.097 12 184.097 10.38C184.097 8.74002 182.917 7.60002 181.277 7.60002ZM180.417 0.700024H182.077V3.98002H180.417V0.700024Z" fill="black" fill-opacity="0.5"/>
<path d="M201.495 6.94002H204.955V8.32002H201.495V6.94002ZM198.115 2.18002H199.415V5.62003C199.415 9.40002 197.835 13.06 195.195 14.68L194.155 13.42C196.635 11.96 198.115 8.72002 198.115 5.62003V2.18002ZM198.435 2.18002H199.715V5.56002C199.715 8.46002 201.075 11.54 203.455 12.98L202.495 14.28C199.895 12.68 198.435 9.08002 198.435 5.56002V2.18002ZM208.135 0.480025H209.735V18.56H208.135V0.480025ZM204.475 0.860024H206.035V17.66H204.475V0.860024Z" fill="black" fill-opacity="0.5"/>
<path d="M216.773 9.78003H218.413V15.2H216.773V9.78003ZM223.453 9.78003H225.113V15.2H223.453V9.78003ZM212.773 14.88H229.153V16.26H212.773V14.88ZM220.933 1.62002C224.753 1.62002 227.493 3.44002 227.493 6.28003C227.493 9.10003 224.753 10.92 220.933 10.92C217.093 10.92 214.353 9.10003 214.353 6.28003C214.353 3.44002 217.093 1.62002 220.933 1.62002ZM220.933 2.94002C218.033 2.94002 215.953 4.26002 215.953 6.28003C215.953 8.28003 218.033 9.60003 220.933 9.60003C223.833 9.60003 225.893 8.28003 225.893 6.28003C225.893 4.26002 223.833 2.94002 220.933 2.94002Z" fill="black" fill-opacity="0.5"/>
</g>
</svg>
