<svg width="110" height="104" viewBox="0 0 110 104" fill="none" xmlns="http://www.w3.org/2000/svg">
<g id="video player">
<g id="Group" filter="url(#filter0_f_31_13906)">
<path id="Vector" d="M65.4889 43.1577H58.2774C57.4429 43.1577 56.7664 44.0346 56.7664 45.1162V58.885C56.7664 59.9667 57.4429 60.8435 58.2774 60.8435H65.4889C66.3234 60.8435 66.9999 59.9667 66.9999 58.885V45.1162C66.9999 44.0346 66.3234 43.1577 65.4889 43.1577Z" fill="url(#paint0_linear_31_13906)"/>
<path id="Vector_2" d="M51.7225 43.1577H44.511C43.6765 43.1577 43 44.0346 43 45.1162V58.885C43 59.9667 43.6765 60.8435 44.511 60.8435H51.7225C52.557 60.8435 53.2335 59.9667 53.2335 58.885V45.1162C53.2335 44.0346 52.557 43.1577 51.7225 43.1577Z" fill="url(#paint1_linear_31_13906)"/>
</g>
</g>
<defs>
<filter id="filter0_f_31_13906" x="0" y="0.157715" width="110" height="103.686" filterUnits="userSpaceOnUse" color-interpolation-filters="sRGB">
<feFlood flood-opacity="0" result="BackgroundImageFix"/>
<feBlend mode="normal" in="SourceGraphic" in2="BackgroundImageFix" result="shape"/>
<feGaussianBlur stdDeviation="21.5" result="effect1_foregroundBlur_31_13906"/>
</filter>
<linearGradient id="paint0_linear_31_13906" x1="44.9406" y1="64.8768" x2="71.0697" y2="53.0566" gradientUnits="userSpaceOnUse">
<stop stop-color="#7C00FF"/>
<stop offset="0.52" stop-color="#FF6700"/>
<stop offset="1" stop-color="#FFD400"/>
</linearGradient>
<linearGradient id="paint1_linear_31_13906" x1="41.4196" y1="57.091" x2="67.5477" y2="45.2689" gradientUnits="userSpaceOnUse">
<stop stop-color="#1400FF"/>
<stop offset="0.52" stop-color="#FF6700"/>
<stop offset="1" stop-color="#FFD400"/>
</linearGradient>
</defs>
</svg>
